<svg width="29" height="26" viewBox="0 0 29 26" fill="none" xmlns="http://www.w3.org/2000/svg">
<path d="M16.8164 10.631C15.5878 9.57347 13.9217 8.97937 12.1844 8.97937C10.4472 8.97937 8.78111 9.57347 7.55245 10.631L2.91895 14.6197C1.69027 15.6777 1 17.1127 1 18.609C1 20.1053 1.69027 21.5403 2.91895 22.5983C4.14763 23.6564 5.81408 24.2508 7.5517 24.2508C9.28932 24.2508 10.9558 23.6564 12.1844 22.5983L14.5004 20.604" stroke="#B1973A" stroke-width="2" stroke-linecap="round" stroke-linejoin="round"/>
<path d="M12.1844 14.6197C13.4131 15.6773 15.0792 16.2714 16.8164 16.2714C18.5537 16.2714 20.2198 15.6773 21.4484 14.6197L26.0819 10.6311C27.3106 9.57302 28.0009 8.13802 28.0009 6.64174C28.0009 5.14546 27.3106 3.71046 26.0819 2.65243C24.8533 1.5944 23.1868 1 21.4492 1C19.7116 1 18.0451 1.5944 16.8164 2.65243L14.5004 4.64676" stroke="#B1973A" stroke-width="2" stroke-linecap="round" stroke-linejoin="round"/>
</svg>
